<?xml version="1.0" standalone="no"?>
<!DOCTYPE svg PUBLIC "-//W3C//DTD SVG 20010904//EN"
 "http://www.w3.org/TR/2001/REC-SVG-20010904/DTD/svg10.dtd">
<svg version="1.0" xmlns="http://www.w3.org/2000/svg"
 width="64.000000pt" height="64.000000pt" viewBox="0 0 64.000000 64.000000"
 preserveAspectRatio="xMidYMid meet">

<g transform="translate(0.000000,64.000000) scale(0.100000,-0.100000)"
fill="#000000" stroke="none">
<path d="M320 535 c0 -18 33 -65 59 -86 30 -23 31 -27 31 -101 l0 -78 -66 0
-66 0 4 80 c2 43 0 76 -4 72 -4 -4 -8 -51 -9 -104 -1 -54 -5 -98 -8 -98 -10 0
-31 23 -31 33 0 5 8 3 17 -4 15 -12 16 -12 10 4 -4 10 -7 23 -7 29 0 5 -7 2
-16 -7 -14 -14 -15 -20 -4 -41 8 -13 19 -24 27 -24 10 0 13 -21 13 -85 0 -50
4 -85 10 -85 6 0 10 34 10 83 0 99 12 117 78 117 l42 0 2 -47 1 -48 7 50 7 50
3 -40 3 -40 4 35 c3 19 10 38 16 42 8 5 9 8 1 8 -7 0 -12 29 -13 80 l-2 80 50
49 c53 52 64 81 33 81 -17 0 -82 -58 -82 -74 0 -4 15 9 34 28 36 38 64 49 47
19 -42 -79 -140 -79 -182 0 -17 30 11 19 47 -19 19 -19 34 -31 34 -25 0 17
-61 71 -81 71 -10 0 -19 -2 -19 -5z m107 -227 c-2 -24 -4 -7 -4 37 0 44 2 63
4 43 2 -21 2 -57 0 -80z m-113 -69 c-9 -10 -21 -16 -27 -12 -7 4 -7 8 2 11 10
3 10 6 1 12 -7 5 -2 8 14 8 25 0 26 -1 10 -19z m84 14 c-10 -2 -28 -2 -40 0
-13 2 -5 4 17 4 22 1 32 -1 23 -4z"/>
<path d="M580 426 c0 -2 7 -7 16 -10 8 -3 12 -2 9 4 -6 10 -25 14 -25 6z"/>
<path d="M60 383 c0 -9 12 -30 27 -45 l27 -28 -40 -2 c-37 -1 -36 -1 11 -7 28
-3 75 -4 105 -2 48 4 51 5 22 10 l-34 6 26 24 c26 24 35 61 16 61 -5 0 -24
-15 -42 -34 l-33 -34 -33 34 c-36 38 -52 43 -52 17z m67 -59 c-10 -10 -57 36
-57 55 0 11 10 6 32 -16 18 -18 29 -36 25 -39z m69 18 c-36 -36 -46 -19 -10
19 16 17 30 25 33 18 2 -6 -8 -23 -23 -37z"/>
<path d="M602 333 c-2 -59 -3 -62 -29 -66 l-28 -4 30 -3 c26 -3 23 -4 -15 -10
l-45 -7 43 -1 44 -2 -4 -75 c-2 -41 1 -71 5 -66 4 4 6 72 4 152 -1 79 -4 116
-5 82z"/>
<path d="M130 197 c0 -5 -23 -7 -50 -5 -28 1 -50 0 -50 -4 0 -5 39 -7 88 -7
48 1 77 4 65 6 -13 2 -23 8 -23 12 0 4 -7 8 -15 8 -8 0 -15 -5 -15 -10z"/>
<path d="M345 125 c0 -46 3 -81 8 -78 4 2 7 11 7 19 0 11 22 14 113 16 l112 1
-80 7 c-44 4 -95 5 -112 2 l-33 -5 0 56 c0 31 -3 58 -7 60 -5 3 -8 -32 -8 -78z"/>
<path d="M131 113 c-1 -25 3 -33 17 -33 11 0 13 3 6 8 -7 4 -14 18 -17 32 -4
21 -4 20 -6 -7z"/>
<path d="M191 124 c0 -11 3 -14 6 -6 3 7 2 16 -1 19 -3 4 -6 -2 -5 -13z"/>
<path d="M185 80 c3 -5 8 -10 11 -10 2 0 4 5 4 10 0 6 -5 10 -11 10 -5 0 -7
-4 -4 -10z"/>
</g>
</svg>
