<?xml version="1.0" standalone="no"?>
<!DOCTYPE svg PUBLIC "-//W3C//DTD SVG 20010904//EN"
 "http://www.w3.org/TR/2001/REC-SVG-20010904/DTD/svg10.dtd">
<svg version="1.0" xmlns="http://www.w3.org/2000/svg"
 width="50.000000pt" height="50.000000pt" viewBox="0 0 50.000000 50.000000"
 preserveAspectRatio="xMidYMid meet">

<g transform="translate(0.000000,50.000000) scale(0.100000,-0.100000)"
fill="#000000" stroke="none">
<path d="M47 383 c-3 -4 55 -7 129 -5 l134 3 0 -110 0 -111 -60 0 c-47 0 -64
4 -80 20 -25 25 -46 25 -62 0 -7 -11 -23 -20 -35 -20 -21 0 -22 4 -26 98 l-3
97 0 -100 c1 -99 1 -100 26 -103 13 -2 30 -13 38 -23 17 -25 49 -24 64 1 11
17 24 20 88 20 64 0 77 -3 88 -20 16 -26 48 -26 64 0 7 11 23 20 35 20 21 0
23 5 21 43 l-1 42 -4 -37 c-5 -43 -30 -52 -51 -18 -16 26 -48 26 -64 0 -7 -11
-16 -20 -20 -20 -4 0 -9 51 -10 113 l-3 112 -132 3 c-72 1 -134 -1 -136 -5z
m111 -202 c8 -4 12 -19 10 -32 -4 -30 -51 -35 -56 -6 -8 39 15 58 46 38z m250
-22 c3 -28 -16 -43 -43 -33 -15 6 -21 45 -8 58 16 16 48 1 51 -25z"/>
<path d="M127 164 c-8 -8 1 -24 14 -24 5 0 9 7 9 15 0 15 -12 20 -23 9z"/>
<path d="M370 155 c0 -8 5 -15 10 -15 6 0 10 7 10 15 0 8 -4 15 -10 15 -5 0
-10 -7 -10 -15z"/>
<path d="M103 353 c20 -2 54 -2 75 0 20 2 3 4 -38 4 -41 0 -58 -2 -37 -4z"/>
<path d="M243 353 c9 -2 23 -2 30 0 6 3 -1 5 -18 5 -16 0 -22 -2 -12 -5z"/>
<path d="M348 333 c12 -2 30 -2 40 0 9 3 -1 5 -23 4 -22 0 -30 -2 -17 -4z"/>
<path d="M158 311 c-7 -12 -18 -21 -25 -21 -15 0 -18 -56 -4 -64 5 -3 30 -3
55 0 32 5 47 12 51 25 9 26 -2 56 -23 63 -9 3 -22 9 -29 12 -7 3 -18 -4 -25
-15z m6 -49 c-4 -9 -6 -21 -5 -25 1 -5 -4 -7 -11 -5 -20 7 -23 48 -4 48 9 0
17 8 17 18 1 16 2 16 6 -1 3 -10 1 -26 -3 -35z m30 6 c-4 -7 -3 -8 4 -4 7 4
12 14 12 22 0 8 4 12 10 9 8 -5 8 -25 1 -53 -1 -1 -10 2 -21 8 -13 7 -20 21
-20 38 1 23 2 25 11 9 5 -9 7 -22 3 -29z"/>
<path d="M373 312 c-30 -3 -33 -6 -33 -38 l0 -35 59 2 c52 2 59 4 51 18 -24
42 -45 56 -77 53z m49 -29 c28 -25 22 -33 -27 -33 -41 0 -45 2 -45 25 0 20 5
25 27 25 14 0 35 -7 45 -17z"/>
<path d="M213 183 c15 -2 39 -2 55 0 15 2 2 4 -28 4 -30 0 -43 -2 -27 -4z"/>
</g>
</svg>
